<svg xmlns="http://www.w3.org/2000/svg"><symbol id="mecha-stilts" viewBox="0 0 190.1 220.4"><path d="M95 1.1l94.9 54.8v109.6L95 220.3.1 165.5V55.9L95 1.1z"/><path fill="#fff" d="M43 151.2a1.7 1.7 0 0 1-1.8-1.8v-21.8H17.4a1.8 1.8 0 0 1 0-3.6h13.5v-11.7a1.7 1.7 0 0 1 1.8-1.8h7a57.2 57.2 0 0 1 55.1-43.7c.2-.2.4-.2.7 0a57 57 0 0 1 54.8 43.7h7a1.7 1.7 0 0 1 1.8 1.8V124h13.5a1.8 1.8 0 1 1 0 3.6h-23.8v21.8a1.7 1.7 0 0 1-1.8 1.8zm-8.5-37.1v9.9h121v-9.9zm56.9-43.5c-23 1.4-42.3 18.1-47.9 39.9h19.3zm-46.6 57v20h48.4v-20zm48.4-53.4l-25.9 36.3h25.9zm3.6-3.8v40.1h49.7a53.6 53.6 0 0 0-49.7-40.1zm0 57.2v20h8.1v-20zm11.7 0v20h36.7v-20z"/></symbol><symbol id="space-bubbles" viewBox="0 0 189.8 221.4"><path d="M95.1.5L190 55.2v109.6l-94.9 54.8L.2 164.8V55.2L95.1.5z"/><path fill="#fff" d="M41.5 154.5l-4.2-5.9a2.1 2.1 0 0 1 .2-2.2l14.9-17.6h-7.3a1.7 1.7 0 0 1-1.8-1.8v-13a1.7 1.7 0 0 1 1.8-1.8h10.4a48.8 48.8 0 0 1-2-13.7 42.6 42.6 0 0 1 85.2 0 45.4 45.4 0 0 1-2 13.7h10.4a1.7 1.7 0 0 1 1.8 1.8v13a1.7 1.7 0 0 1-1.8 1.8h-9.2l14.8 17.6a1.9 1.9 0 0 1 0 2.2l-4.1 5.9a2 2 0 0 1-2.4.5l-8.6-4.5H52.4l-8.6 4.5a1.9 1.9 0 0 1-2.3-.5zm27.3-25.7H56.9l-15.8 18.7 2.5 3.6 30.4-16zm-21.9-13v9.4h98.4v-9.4zm12.4-3.6h73.6a44.7 44.7 0 0 0 2.2-13.7 39 39 0 0 0-78 0c0 4.7.4 9.6 2.2 13.7zm17.3 25.7l-17.1 9h24.4zm-3.1-9.1l15.1 18.1h13l15.1-18.1zm40.1 9.1l-7.3 9h24.4zm19.7-9.1h-11.9l-5.4 6.3 30.6 16 2.5-3.4z"/></symbol><symbol id="super-domes" viewBox="0 0 189.8 221.1"><path d="M94.9.6l94.9 54.8v109.5l-94.9 54.8L0 164.9V55.4L94.9.6z"/><path fill="#fff" d="M39.8 150.6a1.8 1.8 0 0 1 0-3.6h9v-11.3h-9a1.7 1.7 0 0 1-1.8-1.8V98.4a1.7 1.7 0 0 1 1.8-1.8h11.9c.9-25.5 20-39.5 43.2-39.5s42.3 14 43.2 39.5H150a1.8 1.8 0 0 1 1.8 1.8v35.5a1.7 1.7 0 0 1-1.8 1.8h-9V147h9a1.8 1.8 0 0 1 0 3.6zm1.8-50.4v31.9h106.6v-31.9zm10.8 35.5V147h11.5v-11.3zm2.9-39.1h79.2c-.9-23.2-18.6-35.9-39.6-35.9S56.2 73.4 55.3 96.6zm12.2 39.1V147h18v-11.3zm21.6 0V147h11.5v-11.3zm48.8-12.2H94a1.8 1.8 0 1 1 0-3.6h43.9a1.8 1.8 0 0 1 0 3.6zm-33.7 12.2V147h18v-11.3zm21.6 0V147h11.6v-11.3z"/></symbol></svg>